<svg width="637" height="634" viewBox="0 0 637 634" fill="none" xmlns="http://www.w3.org/2000/svg">
<path d="M292.084 0.955957C253.017 3.88929 215.951 14.0226 180.084 31.356C144.484 48.556 122.351 64.4226 94.084 92.6893C55.0173 131.889 27.4173 177.756 13.4173 226.423C2.88399 262.956 -1.78267 302.956 0.617328 336.823C4.61733 391.756 17.684 433.489 45.1507 479.489C79.8173 537.356 136.351 585.489 199.684 610.956C270.884 639.489 345.951 641.489 421.417 616.556C441.284 610.023 478.351 591.889 496.084 580.023C533.284 555.223 568.751 518.956 590.617 483.489C613.017 447.356 625.017 415.489 632.884 370.823C636.884 348.023 637.951 298.689 634.751 276.156C622.617 188.023 581.417 118.556 509.017 63.756C447.551 17.356 369.951 -5.04404 292.084 0.955957ZM355.284 40.2893C387.017 44.8226 416.351 54.2893 444.751 69.0893C485.551 90.2893 518.217 117.623 543.551 151.623C572.217 189.889 587.951 227.489 596.351 276.823C599.551 296.156 599.551 339.889 596.351 359.623C587.551 412.823 566.351 458.289 531.817 498.156C498.884 536.289 452.084 567.223 406.351 581.356C375.817 590.823 356.617 594.156 327.284 595.089C273.151 596.956 226.884 585.356 179.151 558.023C145.017 538.556 106.084 501.623 83.284 467.489C74.6173 454.689 57.9507 420.689 53.4173 406.823C42.484 373.489 37.284 338.556 38.6173 308.023C41.8173 233.489 71.9507 166.689 125.417 115.756C175.817 67.6226 231.417 43.4893 304.751 37.6226C314.751 36.8226 340.617 38.2893 355.284 40.2893Z" fill="black"/>
<path d="M290.484 132.956C239.684 140.823 197.417 165.756 168.217 205.223C155.684 222.289 143.417 244.156 143.417 249.623C143.417 251.223 151.151 251.489 188.751 251.489C233.151 251.489 234.084 251.489 234.084 254.156C234.084 256.823 233.151 256.823 179.417 256.823H124.751V260.156C124.751 263.223 125.284 263.489 130.751 263.489C137.684 263.489 137.684 263.089 134.484 277.623C132.617 285.756 132.084 294.289 132.084 315.489C132.084 341.223 132.351 343.756 135.951 357.489C137.951 365.489 141.817 377.356 144.351 383.623C160.751 424.823 194.751 461.489 235.817 482.423C263.817 496.689 300.217 503.756 330.084 500.823C374.751 496.289 405.017 483.623 438.351 455.756C468.351 430.689 491.017 392.956 499.684 354.156C503.684 335.623 504.084 299.756 500.351 282.156C484.484 208.156 427.417 151.356 352.084 134.689C340.884 132.289 302.217 131.089 290.484 132.956ZM329.417 204.556C348.617 211.089 351.151 212.823 346.751 217.356C345.551 218.423 342.084 220.023 339.017 220.823C327.151 224.023 326.884 224.289 325.817 236.823C324.751 251.223 322.751 262.156 318.617 276.689C315.284 288.289 302.884 323.356 300.484 327.889C299.551 329.756 299.817 331.089 301.551 332.956C303.951 335.623 306.084 336.289 306.084 334.289C306.084 333.623 306.751 331.356 307.684 329.223C308.484 327.223 309.017 324.956 308.884 324.423C308.751 323.756 312.217 312.689 316.617 299.756C323.951 278.289 331.417 247.489 331.417 239.089C331.417 235.356 333.284 233.356 338.351 232.156C341.551 231.356 341.951 231.756 344.484 238.423C349.551 252.289 349.551 253.089 343.284 256.156C337.151 259.089 336.751 261.489 342.351 261.489C345.284 261.489 347.151 263.089 351.951 270.156C355.284 274.956 358.084 279.223 358.084 279.756C358.084 280.289 356.084 281.623 353.551 282.689L349.151 284.556L348.217 300.956C347.551 312.689 346.617 318.023 345.284 319.489C343.817 320.956 339.684 321.489 328.084 321.756C311.417 322.023 309.017 322.556 312.084 325.623C313.151 326.823 314.084 329.356 314.084 331.489C314.084 333.623 315.551 337.089 317.417 339.223C322.751 345.489 321.551 348.689 315.951 343.356L313.017 340.556L309.284 345.356C307.151 348.023 304.884 350.156 304.351 350.156C303.684 350.156 298.351 345.089 292.484 338.823C286.484 332.423 276.884 324.156 270.617 320.023C260.351 313.223 259.551 312.423 260.884 309.756C261.817 308.023 262.084 303.489 261.684 297.756C261.017 290.156 259.551 285.623 253.151 272.289C245.417 256.289 245.417 256.023 245.417 244.156C245.551 229.223 249.017 219.623 257.017 211.489C273.417 195.223 295.284 193.089 329.417 204.556ZM268.751 333.756C280.884 342.823 331.551 394.423 329.951 396.023C329.684 396.289 318.217 396.956 304.484 397.489L279.551 398.423L272.484 391.889C262.217 382.423 250.884 373.089 239.151 364.156C233.417 360.023 228.751 356.156 228.751 355.756C228.751 355.489 233.017 350.689 238.217 345.089C243.417 339.623 248.884 332.556 250.351 329.356C252.884 323.489 252.884 323.489 256.484 325.356C258.484 326.423 264.084 330.156 268.751 333.756ZM362.751 384.689L374.751 396.823L361.684 397.089C354.617 397.223 346.217 397.356 343.284 397.489H337.817L330.751 384.156C322.617 368.823 320.617 362.689 324.217 364.023C326.217 364.823 326.351 364.023 325.551 356.689L324.751 348.556L337.817 360.556C344.884 367.223 356.084 378.023 362.751 384.689ZM313.951 358.956C318.884 371.889 317.417 373.489 309.817 363.623C304.217 356.423 303.551 353.623 307.017 351.623C310.217 349.889 310.884 350.556 313.951 358.956Z" fill="black"/>
</svg>
