<?xml version="1.0" standalone="no"?>
<!DOCTYPE svg PUBLIC "-//W3C//DTD SVG 20010904//EN"
 "http://www.w3.org/TR/2001/REC-SVG-20010904/DTD/svg10.dtd">
<svg version="1.0" xmlns="http://www.w3.org/2000/svg"
 width="900.000000pt" height="800.000000pt" viewBox="0 0 900.000000 800.000000"
 preserveAspectRatio="xMidYMid meet">

<g transform="translate(0.000000,800.000000) scale(0.100000,-0.100000)"
fill="#000000" stroke="none">
<path d="M3262 6639 c-120 -24 -213 -96 -265 -207 l-32 -67 0 -455 0 -455 26
-56 c61 -129 194 -218 327 -219 l32 0 0 -170 c0 -168 0 -171 25 -195 16 -17
35 -25 59 -25 31 0 57 20 251 195 l217 196 101 -3 102 -3 5 -115 c5 -101 9
-123 34 -175 54 -109 151 -182 271 -204 34 -6 190 -11 375 -11 l316 0 200
-181 c109 -99 213 -187 231 -194 37 -17 87 -5 103 25 6 10 10 93 10 183 0 185
-4 177 80 177 97 0 249 124 287 232 16 48 18 91 18 503 l0 450 -33 67 c-36 75
-103 142 -179 179 l-48 24 -437 3 -438 3 0 62 c0 205 -77 344 -228 415 l-57
27 -655 2 c-360 0 -674 -3 -698 -8z m1376 -193 c64 -44 92 -110 92 -213 l0
-83 -122 0 c-158 0 -238 -14 -310 -52 -102 -54 -168 -150 -188 -269 -5 -35
-10 -160 -10 -276 l0 -213 -135 0 -136 0 -154 -140 -155 -141 0 101 c0 115
-15 167 -52 174 -13 3 -62 7 -109 9 -92 5 -128 18 -170 64 -58 62 -57 55 -60
499 -2 393 -2 411 18 454 11 25 31 55 45 67 56 52 53 52 754 50 l651 -2 41
-29z m1140 -498 c22 -15 54 -49 69 -75 l28 -48 3 -383 c4 -421 -1 -466 -48
-524 -48 -57 -101 -78 -204 -78 -79 0 -89 -2 -111 -25 -24 -23 -25 -30 -25
-140 0 -67 -4 -115 -9 -113 -5 2 -71 58 -145 126 -75 68 -149 130 -164 138
-22 11 -94 14 -372 14 -222 0 -359 4 -385 11 -54 15 -120 82 -135 137 -8 30
-10 163 -8 440 l3 397 27 47 c29 48 78 86 132 99 17 4 317 7 667 6 l635 -2 42
-27z"/>
<path d="M2165 4611 c-193 -31 -370 -134 -492 -286 -206 -257 -224 -589 -53
-950 120 -251 305 -429 510 -489 79 -24 218 -22 300 3 225 70 439 314 549 625
35 99 61 241 61 331 -1 209 -101 431 -258 575 -77 71 -224 148 -334 174 -82
19 -216 27 -283 17z m235 -177 c114 -26 206 -79 295 -169 125 -125 175 -246
175 -426 0 -172 -60 -351 -175 -524 -127 -192 -293 -295 -453 -282 -278 22
-573 440 -572 810 1 173 54 300 175 422 159 159 350 218 555 169z"/>
<path d="M6625 4611 c-186 -30 -368 -133 -485 -274 -60 -73 -133 -215 -157
-307 -27 -102 -23 -298 10 -420 80 -302 264 -563 476 -674 94 -49 168 -68 267
-67 141 0 240 38 365 140 169 137 301 354 366 600 36 134 38 321 5 434 -60
209 -197 386 -371 476 -145 75 -341 113 -476 92z m235 -177 c114 -26 206 -79
295 -169 134 -134 181 -259 172 -455 -10 -218 -105 -439 -261 -607 -214 -231
-462 -228 -678 7 -154 166 -258 420 -258 630 0 177 52 302 175 425 158 159
350 218 555 169z"/>
<path d="M1410 2759 c-220 -57 -410 -208 -505 -403 -84 -170 -89 -201 -89
-599 l-1 -349 28 -24 28 -24 1400 0 1401 0 30 30 30 30 -4 353 c-5 402 -8 421
-96 592 -37 72 -64 108 -137 180 -124 123 -239 188 -393 220 -96 21 -340 20
-369 0 -13 -9 -120 -151 -240 -315 -204 -282 -218 -299 -234 -283 -9 10 -107
144 -219 298 -111 154 -212 288 -222 298 -30 26 -303 24 -408 -4z m560 -479
c160 -219 255 -340 273 -348 57 -27 70 -13 334 351 l246 340 116 -6 c64 -3
141 -13 171 -22 215 -65 385 -243 434 -455 12 -50 16 -129 16 -337 l0 -273
-1290 0 -1290 0 0 268 c0 235 2 279 20 346 26 104 72 187 148 268 137 145 288
208 492 205 l85 -2 245 -335z"/>
<path d="M5870 2760 c-41 -11 -115 -40 -165 -65 -158 -79 -269 -192 -345 -350
-82 -170 -85 -188 -85 -588 l0 -349 28 -24 28 -24 1400 0 1401 0 30 30 30 30
-4 348 c-4 315 -6 354 -26 423 -67 246 -249 449 -481 538 -106 41 -173 51
-331 51 -121 0 -140 -2 -162 -19 -13 -11 -120 -152 -238 -315 -117 -162 -217
-293 -221 -291 -4 3 -103 137 -219 297 -117 161 -222 301 -232 311 -30 26
-302 24 -408 -3z m537 -450 c274 -375 269 -369 301 -381 53 -20 70 -2 328 353
l247 341 116 -6 c130 -6 195 -23 292 -73 118 -62 205 -153 270 -284 52 -105
59 -158 59 -457 l0 -273 -1291 0 -1290 0 3 293 c4 268 6 297 26 357 75 223
269 390 500 430 26 4 85 7 132 7 l85 -2 222 -305z"/>
</g>
</svg>
