<?xml version="1.0" standalone="no"?>
<!DOCTYPE svg PUBLIC "-//W3C//DTD SVG 20010904//EN"
 "http://www.w3.org/TR/2001/REC-SVG-20010904/DTD/svg10.dtd">
<svg version="1.0" xmlns="http://www.w3.org/2000/svg"
 width="512.000000pt" height="512.000000pt" viewBox="0 0 512.000000 512.000000"
 preserveAspectRatio="xMidYMid meet">

<g transform="translate(0.000000,512.000000) scale(0.100000,-0.100000)"
fill="#000000" stroke="none">
<path d="M2370 4954 c-333 -28 -543 -69 -810 -156 -418 -136 -765 -347 -1040
-634 -308 -320 -475 -692 -512 -1137 -21 -252 14 -552 89 -762 65 -182 190
-364 314 -456 58 -43 69 -57 65 -74 -12 -47 -56 -315 -68 -415 -20 -164 -17
-536 5 -639 51 -236 161 -365 312 -366 127 0 236 90 447 368 134 177 208 261
250 283 42 22 84 17 271 -27 477 -112 619 -133 887 -133 652 1 1383 248 1855
627 111 89 277 264 358 377 82 115 195 340 236 471 81 258 108 545 76 792 -80
611 -496 1177 -1125 1532 -294 166 -651 280 -1035 330 -114 15 -479 27 -575
19z m480 -329 c986 -105 1757 -715 1927 -1525 25 -121 25 -398 -1 -535 -76
-406 -310 -741 -693 -993 -472 -309 -1212 -496 -1754 -442 -241 24 -498 84
-695 161 -96 38 -113 41 -171 36 -155 -12 -369 -178 -616 -480 -49 -59 -98
-112 -109 -118 -31 -17 -48 8 -59 86 -17 120 24 528 87 862 42 226 48 197 -52
278 -275 224 -408 560 -391 990 13 346 129 647 352 915 454 545 1335 855 2175
765z"/>
<path d="M2441 4144 c-203 -54 -293 -204 -276 -459 3 -55 15 -163 26 -240 27
-192 175 -928 194 -964 26 -50 71 -75 146 -79 109 -7 179 28 212 105 9 21 45
175 81 343 145 686 166 940 89 1097 -77 156 -291 246 -472 197z m201 -170 c71
-45 111 -121 123 -231 8 -70 -7 -269 -41 -533 -14 -107 -36 -279 -49 -383 -14
-103 -29 -195 -34 -205 -27 -51 -94 -74 -130 -44 -25 20 -50 109 -80 287 -51
301 -96 742 -89 864 8 129 57 212 153 257 57 28 90 25 147 -12z"/>
<path d="M2487 2230 c-93 -24 -168 -84 -214 -173 -23 -44 -27 -65 -27 -137 -1
-100 23 -159 89 -225 66 -66 125 -90 225 -89 72 0 93 4 137 27 116 60 177 160
177 287 0 56 -6 88 -23 126 -27 63 -101 136 -163 164 -54 24 -148 33 -201 20z
m161 -177 c51 -38 67 -70 67 -133 0 -92 -54 -150 -147 -158 -61 -4 -106 19
-145 77 -51 75 -15 187 72 227 40 19 119 12 153 -13z"/>
</g>
</svg>
