<?xml version="1.0" standalone="no"?>
<!DOCTYPE svg PUBLIC "-//W3C//DTD SVG 20010904//EN"
 "http://www.w3.org/TR/2001/REC-SVG-20010904/DTD/svg10.dtd">
<svg version="1.0" xmlns="http://www.w3.org/2000/svg"
 width="4096.000000pt" height="4096.000000pt" viewBox="0 0 4096.000000 4096.000000"
 preserveAspectRatio="xMidYMid meet">

<g transform="translate(0.000000,4096.000000) scale(0.100000,-0.100000)"
fill="#000000" stroke="none">
<path d="M31134 31202 c-28 -10 -69 -31 -91 -48 -23 -16 -1617 -1677 -3542
-3689 -1926 -2013 -3507 -3664 -3515 -3669 -8 -6 -676 267 -2067 845 l-2054
853 -101 1 c-181 0 50 214 -2336 -2160 -1155 -1149 -2106 -2091 -2113 -2093
-7 -2 -1582 232 -3501 518 -3811 569 -3594 541 -3704 488 -34 -16 -387 -290
-930 -723 -1138 -907 -1372 -1094 -2115 -1684 -341 -272 -637 -510 -658 -530
-21 -20 -52 -65 -70 -101 -29 -59 -32 -73 -32 -160 0 -82 4 -103 27 -152 89
-190 325 -276 505 -184 26 13 831 648 1788 1410 1108 882 1748 1386 1762 1386
12 0 1560 -230 3440 -510 1880 -281 3467 -518 3526 -526 87 -12 119 -13 165
-3 122 25 112 16 872 773 3012 3001 3454 3438 3474 3433 17 -4 3333 -1377
3921 -1624 170 -72 185 -76 270 -80 110 -6 180 16 256 81 27 22 1669 1735
3649 3805 4051 4236 3665 3815 3665 3991 0 82 -4 103 -26 150 -39 81 -99 144
-176 182 -55 27 -79 32 -152 35 -64 3 -99 -1 -137 -15z"/>
<path d="M28760 17265 l0 -6775 -375 0 -375 0 0 4940 0 4940 -3580 0 -3580 0
0 -4940 0 -4940 -370 0 -370 0 -2 3843 -3 3842 -3577 3 -3578 2 0 -3845 0
-3845 -375 0 -375 0 0 3115 0 3115 -3215 0 -3215 0 0 -3115 0 -3115 -1268 0
c-872 0 -1287 -3 -1327 -11 -72 -13 -142 -48 -195 -95 -51 -46 -105 -155 -114
-228 -20 -154 68 -313 213 -384 l56 -27 17325 -3 c15174 -2 17331 0 17375 13
153 44 258 191 259 360 0 70 -4 90 -31 147 -17 36 -47 83 -67 105 -46 51 -134
98 -210 112 -41 8 -458 11 -1328 11 l-1268 0 0 6775 0 6775 -3215 0 -3215 0 0
-6775z"/>
</g>
</svg>
