<?xml version="1.0" standalone="no"?>
<!DOCTYPE svg PUBLIC "-//W3C//DTD SVG 20010904//EN"
 "http://www.w3.org/TR/2001/REC-SVG-20010904/DTD/svg10.dtd">
<svg version="1.0" xmlns="http://www.w3.org/2000/svg"
 width="512.000000pt" height="512.000000pt" viewBox="0 0 512.000000 512.000000"
 preserveAspectRatio="xMidYMid meet">

<g transform="translate(0.000000,512.000000) scale(0.100000,-0.100000)"
fill="#000000" stroke="none">
<path d="M2130 5105 c-92 -26 -198 -100 -237 -165 l-16 -28 -226 -4 c-218 -3
-228 -4 -281 -29 -74 -35 -116 -72 -152 -136 l-30 -53 -304 0 c-333 0 -360 -4
-440 -65 -49 -38 -100 -121 -114 -185 -8 -40 -10 -605 -8 -2125 l3 -2070 26
-56 c33 -71 87 -125 158 -158 l56 -26 1073 0 1074 0 29 33 c41 46 40 99 -2
141 l-30 31 -1054 2 -1055 3 -32 33 -33 32 0 2063 c0 1976 1 2063 18 2089 10
14 32 31 49 37 19 7 134 11 299 11 l269 0 0 -47 c0 -68 17 -119 47 -143 25
-20 33 -20 1023 -20 990 0 998 0 1023 20 30 24 47 75 47 143 l0 47 269 0 c165
0 280 -4 299 -11 17 -6 39 -23 49 -37 17 -25 18 -78 23 -919 l5 -891 24 -26
c32 -34 80 -42 120 -22 64 34 61 -14 61 953 0 961 1 939 -59 1027 -39 56 -85
92 -151 117 -46 17 -78 19 -354 19 l-304 0 -30 53 c-36 64 -78 101 -152 136
-53 25 -63 26 -280 30 l-225 4 -30 41 c-41 54 -117 111 -185 137 -73 28 -188
34 -260 14z m217 -231 c40 -23 93 -85 93 -109 0 -6 14 -24 31 -41 l30 -29 264
-3 265 -3 30 -30 c28 -29 30 -36 30 -105 l0 -74 -850 0 -850 0 0 74 c0 69 2
76 30 105 l30 30 265 3 265 3 24 25 c14 14 36 45 49 70 57 109 187 146 294 84z"/>
<path d="M3513 2339 c-315 -28 -623 -199 -812 -450 -145 -192 -220 -384 -240
-613 -47 -538 281 -1039 794 -1214 552 -188 1168 73 1425 602 223 458 125
1000 -244 1354 -194 186 -437 296 -711 322 -60 5 -112 9 -115 9 -3 -1 -46 -5
-97 -10z m352 -237 c398 -109 674 -432 714 -835 30 -296 -74 -574 -290 -783
-83 -79 -136 -117 -226 -163 -174 -87 -341 -119 -530 -100 -408 41 -737 326
-839 729 -15 59 -19 108 -18 235 1 144 4 169 28 250 36 119 112 263 187 352
140 168 357 294 576 333 81 15 319 4 398 -18z"/>
<path d="M3516 1910 c-213 -38 -366 -162 -410 -332 -25 -96 4 -155 82 -165 59
-8 97 22 118 94 20 69 76 133 142 161 212 91 492 -6 494 -171 2 -97 -77 -157
-269 -205 -98 -25 -109 -30 -130 -61 -21 -31 -23 -45 -23 -163 0 -139 9 -174
52 -195 46 -24 89 -20 125 11 26 22 28 31 33 112 l5 88 92 31 c159 56 252 127
299 230 102 221 -51 476 -331 552 -65 17 -216 24 -279 13z"/>
<path d="M3583 626 c-69 -31 -80 -121 -22 -170 44 -38 98 -36 138 5 81 81 -11
212 -116 165z"/>
</g>
</svg>
